# xmcd CD database file
#
# Track frame offsets:
#	150
#	48711
#	87824
#	136768
#	189408
#	220086
#	255551
#
# Disc length: 4041 seconds
#
# Revision: 0
# Processed by: cddbd v1.5.2PL0 Copyright (c) Steve Scherf et al.
# Submitted via: CDex 1.70beta2
#
DISCID=5a0fc707
DTITLE=Joe Morris - Today on Earth
DYEAR=2009
DGENRE=Jazz
TTITLE0=Backbone
TTITLE1=Animal
TTITLE2=Today on Earth
TTITLE3=Observer
TTITLE4=Embarrassment of Riches
TTITLE5=Ashes
TTITLE6=Imaginary Solutions
EXTD=YEAR: 2009
EXTT0=
EXTT1=
EXTT2=
EXTT3=
EXTT4=
EXTT5=
EXTT6=
PLAYORDER=
